<svg width="51" height="70" viewBox="0 0 51 70" fill="none" xmlns="http://www.w3.org/2000/svg">
<g clip-path="url(#clip0_19_184)">
<path d="M48.125 68.906C48.125 68.616 48.0098 68.3378 47.8046 68.1326C47.5995 67.9275 47.3213 67.8123 47.0312 67.8123H7.65624C7.36616 67.8123 7.08796 67.9275 6.88284 68.1326C6.67772 68.3378 6.56249 68.616 6.56249 68.906C6.56249 69.1961 6.67772 69.4743 6.88284 69.6794C7.08796 69.8846 7.36616 69.9998 7.65624 69.9998H47.0312C47.3213 69.9998 47.5995 69.8846 47.8046 69.6794C48.0098 69.4743 48.125 69.1961 48.125 68.906ZM2.78686 20.4617C1.87249 21.0698 0.48561 22.9204 1.8003 25.5498C2.89186 27.7307 5.16905 30.3995 7.59061 31.1038C8.17265 31.2862 8.7869 31.3423 9.39235 31.2684C9.9978 31.1945 10.5805 30.9922 11.1015 30.6751C13.5056 29.2357 16.345 27.2888 17.5481 26.4532C19.0662 27.221 20.9825 27.3807 22.9294 26.8798L22.9556 26.871C22.8419 30.4826 21.6191 32.7379 15.6406 38.2898C10.3119 43.2357 7.15092 49.7326 7.18155 55.6717C7.20342 59.5676 8.62311 62.9123 11.294 65.3382C11.4954 65.5224 11.7584 65.6246 12.0312 65.6248H42.6562C42.9463 65.6248 43.2245 65.5096 43.4296 65.3044C43.6348 65.0993 43.75 64.8211 43.75 64.531C43.75 64.241 43.6348 63.9628 43.4296 63.7576C43.2245 63.5525 42.9463 63.4373 42.6562 63.4373H12.4665C10.4562 61.4576 9.38874 58.7779 9.37124 55.6607C9.3428 50.4063 12.3178 44.3623 17.1303 39.8932C23.5069 33.9738 25.1562 31.1695 25.1562 26.2498C25.1562 26.1601 25.1256 26.0813 25.1059 25.9982C26.3025 25.3529 27.3372 24.4998 28.0437 23.4673C28.9297 22.1767 30.8372 18.8626 29.4219 15.9292C29.3592 15.7999 29.2718 15.6842 29.1644 15.5888C29.0571 15.4933 28.932 15.4199 28.7963 15.3728C28.6607 15.3256 28.517 15.3057 28.3736 15.3141C28.2302 15.3225 28.0899 15.359 27.9606 15.4217C27.8313 15.4843 27.7157 15.5718 27.6202 15.6791C27.5247 15.7864 27.4514 15.9115 27.4042 16.0472C27.3571 16.1829 27.3372 16.3265 27.3456 16.4699C27.3539 16.6133 27.3905 16.7536 27.4531 16.8829C28.0897 18.202 27.6369 20.2013 26.2412 22.2313C25.4362 23.4038 23.9969 24.351 22.389 24.7623C20.755 25.1801 19.2019 24.9963 18.119 24.2548C17.9349 24.1286 17.7164 24.0618 17.4931 24.0633C17.2699 24.0649 17.0524 24.1347 16.87 24.2635C16.8306 24.2898 12.9828 27.0001 9.98155 28.8004C9.71828 28.9619 9.42294 29.0639 9.11614 29.0995C8.80935 29.135 8.49849 29.1031 8.2053 29.006C6.51217 28.5117 4.65061 26.3548 3.7603 24.5742C3.04061 23.1348 3.7778 22.4479 4.11249 22.2029C11.6528 15.6907 15.4372 8.92478 15.5925 8.63822C15.6651 8.50603 15.7095 8.36025 15.7231 8.21005C15.7367 8.05984 15.719 7.90846 15.6712 7.76541C15.1997 6.30476 14.8055 4.82031 14.49 3.31822C16.7781 4.69635 20.7134 6.62135 24.8106 6.62135C30.5069 6.62135 43.75 8.7476 43.75 28.4438C43.75 28.551 43.7303 39.2588 39.4406 51.0342C39.3898 51.1696 39.3664 51.3137 39.3717 51.4583C39.3769 51.6028 39.4108 51.7449 39.4714 51.8762C39.5319 52.0076 39.6179 52.1256 39.7244 52.2235C39.8309 52.3214 39.9557 52.3972 40.0917 52.4465C40.2276 52.4958 40.372 52.5177 40.5165 52.5109C40.661 52.504 40.8027 52.4686 40.9334 52.4066C41.064 52.3446 41.1811 52.2573 41.2779 52.1498C41.3746 52.0422 41.449 51.9166 41.4969 51.7801C45.9178 39.6438 45.9397 28.8857 45.9375 28.4373C45.9375 6.16197 29.7653 4.43166 24.8106 4.43166C19.3222 4.43166 13.8469 0.268845 13.7944 0.225095C13.6308 0.102763 13.4368 0.027668 13.2336 0.00799577C13.0303 -0.0116764 12.8255 0.0248289 12.6415 0.113533C12.4585 0.203708 12.3044 0.34327 12.1966 0.516448C12.0887 0.689626 12.0314 0.889517 12.0312 1.09353C12.0312 3.23947 13.0484 6.71103 13.4444 7.9776C12.53 9.50447 8.92499 15.1548 2.78686 20.4617Z" fill="white"/>
<path d="M38.2484 3.36875C34.7463 1.00844 30.8306 0 25.1563 0C24.8662 0 24.588 0.115234 24.3829 0.320352C24.1777 0.52547 24.0625 0.803669 24.0625 1.09375C24.0625 1.38383 24.1777 1.66203 24.3829 1.86715C24.588 2.07227 24.8662 2.1875 25.1563 2.1875C30.3625 2.1875 33.9128 3.08219 37.0278 5.18219C42.0897 8.59906 48.125 15.4066 48.125 28.4375C48.125 31.6116 48.125 35.9581 45.9703 44.5791C45.9076 44.8578 45.9564 45.15 46.1064 45.3932C46.2563 45.6364 46.4954 45.8112 46.7726 45.8804C47.0498 45.9496 47.3431 45.9075 47.5897 45.7632C47.8363 45.619 48.0166 45.384 48.0922 45.1084C50.3125 36.2294 50.3125 31.7253 50.3125 28.4375C50.3125 14.4462 43.7522 7.08094 38.2484 3.36875Z" fill="white"/>
</g>
<defs>
<clipPath id="clip0_19_184">
<rect width="50.3125" height="70" fill="white"/>
</clipPath>
</defs>
</svg>
