<svg width="70" height="70" viewBox="0 0 70 70" fill="none" xmlns="http://www.w3.org/2000/svg">
<path d="M46.5513 3.0152C44.1194 3.99274 39.8488 5.82504 38.4762 7.88772C38.2249 8.87619 38.2037 9.73164 38.2902 10.6683C39.7418 11.0134 43.2882 11.5186 44.4193 10.7462C46.1287 8.35092 46.4272 5.72455 46.5513 3.0152ZM20.9555 12.7426C21.5867 14.2476 23.2402 17.3608 24.6037 17.955C26.5447 18.0348 28.1111 17.4146 29.7729 16.5819C29.7305 15.6971 29.6047 14.8276 29.1827 13.9917C26.4561 12.6014 23.8118 12.5712 20.9555 12.7426ZM36.4136 12.7183C36.8637 14.5437 37.0603 16.5847 37.0793 18.7039C35.7384 17.7363 34.1051 17.0192 32.2362 16.4181C32.3149 18.0935 32.4862 17.948 31.1337 18.6498C33.8805 19.4997 35.7944 20.5144 36.9832 21.943C36.7495 25.5406 36.1306 29.1639 35.4748 32.182C31.5076 32.2993 26.4135 32.8601 21.9817 33.7649L26.2959 35.922L17.7117 34.8191C15.5747 35.1727 12.5246 36.3388 12.2587 37.7634C12.8872 41.2718 18.5635 42.8427 21.3152 43.5657C26.7751 44.9773 33.5392 45.5775 38.168 45.4467C40.3554 45.3848 43.207 44.9952 46.1335 44.3793L41.0971 39.2871L49.403 43.6017C52.6513 42.6299 56.0946 41.705 58.8678 39.7733C59.3139 39.3755 60.4936 38.6322 60.2713 37.939C59.999 37.112 59.1024 36.225 57.561 35.4437C56.0196 34.6623 53.9174 34.0159 51.5869 33.5278C48.0595 32.7888 44.009 32.3999 40.4628 32.2428L39.1904 38.6259C35.8729 41.6556 30.8545 39.9138 30.1868 37.2956L32.6231 36.9517C33.8276 38.2802 35.8565 38.0522 36.9527 37.266C37.3257 34.8 38.0861 32.0961 38.5127 29.8312C41.1806 29.3896 43.2839 28.0963 44.995 26.3151C44.068 26.0455 43.786 25.1042 43.5037 24.2845C42.2608 25.6532 40.655 26.8502 38.9499 27.2677C39.6321 22.7667 39.9288 17.7585 39.0724 13.3416C38.1739 13.1879 37.2889 12.9702 36.4136 12.7183ZM45.4827 21.4402C45.2633 23.6678 46.3573 24.243 48.3698 24.5455C49.2754 23.3075 49.5754 22.0691 49.7766 20.686C48.463 20.8688 46.4213 20.3156 45.4827 21.4402ZM45.4827 21.4402C45.4813 21.4405 45.4786 21.4437 45.4733 21.4509C45.4756 21.4478 45.4801 21.4435 45.4827 21.4402ZM60.1321 41.8898C57.2076 43.6614 54.5911 44.6508 51.6393 45.5313L50.1953 51.7122L47.6542 46.5749C44.2786 47.3437 40.9117 47.8305 38.2374 47.9063C33.3353 48.0449 26.4668 47.4392 20.6994 45.9482C17.7544 44.9784 14.8298 44.1934 12.5736 42.5056L10.7531 55.8813L2.84082 64.1248C6.69355 63.8656 10.458 65.6558 13.7091 64.8904C15.0979 64.5549 17.0266 63.8492 19.8393 62.564L26.431 57.1441L22.9345 62.8439C29.3737 65.7679 35.4555 64.4814 41.1809 62.0612L39.3994 52.3912L44.995 61.3246C51.1187 66.3507 58.404 68.117 65.6552 66.2717C66.2604 66.1145 66.7493 65.9504 67.1591 65.7955L62.5345 59.1015L59.4972 62.3722L61.1757 53.5076L60.1321 41.8898Z" fill="white"/>
</svg>
