<svg width="70" height="70" viewBox="0 0 70 70" fill="none" xmlns="http://www.w3.org/2000/svg">
<path d="M55.4167 20.4167C52.2084 20.4167 49.5834 23.0417 49.5834 26.25V32.0834C49.5834 35.2917 52.2084 37.9167 55.4167 37.9167H61.25V43.75H49.5834V49.5834H61.25C64.4583 49.5834 67.0834 46.9584 67.0834 43.75V37.9167C67.0834 34.7084 64.4583 32.0834 61.25 32.0834H55.4167V26.25H67.0834V20.4167H55.4167ZM26.25 20.4167V49.5834H37.9167C41.125 49.5834 43.75 46.9584 43.75 43.75V26.25C43.75 23.0417 41.125 20.4167 37.9167 20.4167H26.25ZM32.0834 26.25H37.9167V43.75H32.0834V26.25ZM8.75002 20.4167C5.54169 20.4167 2.91669 23.0417 2.91669 26.25V49.5834H8.75002V37.9167H14.5834V49.5834H20.4167V26.25C20.4167 23.0417 17.7917 20.4167 14.5834 20.4167H8.75002ZM8.75002 26.25H14.5834V32.0834H8.75002V26.25Z" fill="white"/>
</svg>
